<svg width="46" height="46" viewBox="0 0 46 46" fill="none" xmlns="http://www.w3.org/2000/svg">
<path fill-rule="evenodd" clip-rule="evenodd" d="M17.9724 16.9834H25.9575V20.9609C27.1077 18.6733 30.0575 16.6179 34.4887 16.6179C42.9833 16.6179 45 21.1716 45 29.5265V45H36.4V31.4292C36.4 26.6713 35.2498 23.9881 32.3215 23.9881C28.2601 23.9881 26.5724 26.8798 26.5724 31.4271V45H17.9724V16.9834V16.9834ZM3.2255 44.6345H11.8255V16.6179H3.2255V44.6345V44.6345ZM13.0575 7.4825C13.0578 8.20334 12.9148 8.91706 12.6369 9.58216C12.359 10.2473 11.9516 10.8505 11.4385 11.3568C10.3988 12.3901 8.99139 12.9686 7.5255 12.965C6.06219 12.964 4.65807 12.3871 3.6168 11.359C3.10555 10.8509 2.69958 10.247 2.42214 9.58183C2.1447 8.91664 2.00125 8.20323 2 7.4825C2 6.02695 2.5805 4.63375 3.61895 3.60605C4.6593 2.57654 6.06402 1.99936 7.52765 2C8.99395 2 10.4001 2.57835 11.4385 3.60605C12.4748 4.63375 13.0575 6.02695 13.0575 7.4825Z" fill="white"/>
</svg>
