<svg width="46" height="52" viewBox="0 0 46 52" fill="none" xmlns="http://www.w3.org/2000/svg">
<g clip-path="url(#clip0_223_7)">
<path d="M40.4668 0H5.53324C4.06573 0 2.65833 0.502607 1.62065 1.39725C0.582965 2.2919 0 3.5053 0 4.77052V47.2295C0 48.4947 0.582965 49.7081 1.62065 50.6027C2.65833 51.4974 4.06573 52 5.53324 52H40.4668C41.9343 52 43.3417 51.4974 44.3793 50.6027C45.417 49.7081 46 48.4947 46 47.2295V4.77052C46 3.5053 45.417 2.2919 44.3793 1.39725C43.3417 0.502607 41.9343 0 40.4668 0ZM13.3365 18.7695C12.0783 18.1619 11.0414 17.2638 10.3425 16.1762C9.64351 15.0887 9.31011 13.8546 9.37971 12.6126C9.37971 8.9702 12.1227 6.00732 15.512 6.00732C18.9013 6.00732 21.6443 8.9702 21.6443 12.6126C21.7254 13.9035 21.3653 15.1866 20.6087 16.3027C19.8521 17.4189 18.7323 18.3191 17.3879 18.8918V18.8918C18.6018 22.4255 24.5922 21.8683 25.4435 26.068H6.06923C6.58944 22.9284 12.6902 23.2546 13.3365 18.7695ZM38.5593 43.2337C38.5593 43.4968 38.438 43.7492 38.2222 43.9352C38.0064 44.1213 37.7137 44.2258 37.4085 44.2258H7.20425C7.05254 44.2277 6.90194 44.2032 6.76136 44.154C6.62078 44.1048 6.49308 44.0318 6.38579 43.9393C6.2785 43.8468 6.19382 43.7367 6.13674 43.6155C6.07966 43.4943 6.05134 43.3645 6.05346 43.2337V41.2358C6.05134 41.105 6.07966 40.9751 6.13674 40.8539C6.19382 40.7327 6.2785 40.6226 6.38579 40.5301C6.49308 40.4376 6.62078 40.3646 6.76136 40.3154C6.90194 40.2662 7.05254 40.2418 7.20425 40.2436H37.3612C37.6664 40.2436 37.9591 40.3481 38.1749 40.5342C38.3908 40.7203 38.512 40.9726 38.512 41.2358L38.5593 43.2337ZM38.8903 35.0789C38.8904 35.3433 38.7696 35.5971 38.5543 35.7853C38.3389 35.9736 38.0462 36.0811 37.7395 36.0847H7.5353C7.22865 36.0811 6.93597 35.9736 6.72059 35.7853C6.50522 35.5971 6.38448 35.3433 6.38451 35.0789V33.0946C6.38451 32.8315 6.50575 32.5791 6.72157 32.3931C6.93738 32.207 7.23009 32.1025 7.5353 32.1025H37.6923C37.9975 32.1025 38.2902 32.207 38.506 32.3931C38.7218 32.5791 38.843 32.8315 38.843 33.0946L38.8903 35.0789ZM39.5524 25.4292C39.5524 25.6923 39.4312 25.9447 39.2154 26.1307C38.9996 26.3168 38.7069 26.4213 38.4016 26.4213H30.3777C30.0724 26.4213 29.7797 26.3168 29.5639 26.1307C29.3481 25.9447 29.2269 25.6923 29.2269 25.4292V23.4449C29.2269 23.1817 29.3481 22.9294 29.5639 22.7433C29.7797 22.5572 30.0724 22.4527 30.3777 22.4527H38.3544C38.5061 22.4509 38.6567 22.4753 38.7972 22.5245C38.9378 22.5737 39.0655 22.6467 39.1728 22.7392C39.2801 22.8317 39.3648 22.9418 39.4219 23.063C39.4789 23.1842 39.5073 23.3141 39.5051 23.4449L39.5524 25.4292ZM39.5524 17.5055C39.5546 17.6363 39.5262 17.7661 39.4692 17.8873C39.4121 18.0085 39.3274 18.1186 39.2201 18.2111C39.1128 18.3036 38.9851 18.3766 38.8445 18.4259C38.704 18.4751 38.5534 18.4995 38.4016 18.4976H30.3777C30.0724 18.4976 29.7797 18.3931 29.5639 18.2071C29.3481 18.021 29.2269 17.7686 29.2269 17.5055V15.5212C29.2269 15.258 29.3481 15.0057 29.5639 14.8196C29.7797 14.6335 30.0724 14.529 30.3777 14.529H38.3544C38.6596 14.529 38.9523 14.6335 39.1681 14.8196C39.3839 15.0057 39.5051 15.258 39.5051 15.5212L39.5524 17.5055Z" fill="white"/>
</g>
<defs>
<clipPath id="clip0_223_7">
<rect width="46" height="52" fill="white"/>
</clipPath>
</defs>
</svg>
